<svg xmlns="http://www.w3.org/2000/svg" width="1365.333" height="1526.667" version="1.0" viewBox="0 0 1024 1145"><path d="M470 7.1C432.1 30.2 396.3 60.3 369.1 92l-8.1 9.4v239.2c0 227-.1 239.3-1.7 239.8-1 .3-61.2 13.2-133.8 28.6-72.6 15.4-132.5 28.2-133.1 28.4-2.6 1-18.3 44.5-24.3 67.6-4.8 18.3-12 59.2-10.9 61.9.2.6 286.5-59.6 301.5-63.4l2.3-.5v77.5c0 61.1-.3 77.7-1.2 78-.7.3-74 15.9-162.8 34.7L35.5 927.5l-2.9 6c-8.4 17.3-19.8 53-25.4 79.5-3 14.1-7.6 43.9-6.9 44.6.5.6 343.4-72.4 351.2-74.7 7.9-2.4 22-9.1 28.9-13.8 7.1-4.9 15.9-13 21.8-20.1 7.2-8.5 71.4-103.8 74.1-109.8 5.2-12 5.1-9.4 5.4-88.3l.4-73.5 58.2-12.4c32-6.8 59-12.5 60-12.8 1.6-.4 1.7 5.9 1.7 122.7 0 67.7.2 123.1.5 123.1 1.1 0 382.1-81.1 384.3-81.8 6.3-2 25.5-59.6 32.2-96.5 2.4-13.6 5-33 4.5-33.6-.3-.2-9.1 1.5-19.7 3.7-10.6 2.3-54.4 11.6-97.3 20.7-85.8 18.2-134.3 28.6-162.4 34.6-10.1 2.1-19 3.9-19.8 3.9-1.1 0-1.3-10.6-1.3-61.5 0-33.8.2-61.5.5-61.5.2 0 57.7-12.2 127.7-27.1 70-14.9 129.6-27.5 132.5-28.1 5.1-1 5.2-1.1 8.1-7.7 9.4-21.1 19.8-54 25.1-79.2 2.7-13.3 7.5-43.9 6.9-44.4-.2-.1-66.4 13.9-147.3 31.1-80.8 17.2-148.5 31.5-150.2 31.9l-3.3.6V282c0-121.5-.2-221-.5-221-1.2 0-6.7 3.2-17.7 10.1-36.9 23.3-68.7 50.8-97.6 84.5l-5.2 6.1v367.1l-5.2 1.2c-23.5 5.1-112.9 24-113.7 24-.8 0-1.2-84-1.3-276.9l-.3-277-11.5 7zM900 958.1c-66.8 14.2-153.2 32.6-191.9 40.8-42.2 9-70.7 15.5-71.2 16.3-.5.7-3.5 8-6.8 16.3-13.3 33.7-21.3 64.4-26 99.2-1.1 8-1.4 13.3-.8 13.3 2.1 0 383.3-81.1 384.7-81.9 1.9-1 8.8-17.7 15.5-37.2 8.3-24.5 15.3-53.5 18.5-77.4.5-4.4 1.2-9.7 1.5-11.8.4-2.6.2-3.7-.7-3.6-.7 0-56 11.7-122.8 26z"/></svg>